<?xml version="1.0" encoding="UTF-8"?>
<!DOCTYPE svg PUBLIC "-//W3C//DTD SVG 1.1//EN" "http://www.w3.org/Graphics/SVG/1.1/DTD/svg11.dtd">
<svg xmlns="http://www.w3.org/2000/svg" version="1.1" width="500px" height="500px" style="shape-rendering:geometricPrecision; text-rendering:geometricPrecision; image-rendering:optimizeQuality; fill-rule:evenodd; clip-rule:evenodd" xmlns:xlink="http://www.w3.org/1999/xlink">
<g><path style="opacity:1" fill="#fefefe" d="M -0.5,-0.5 C 82.1667,-0.5 164.833,-0.5 247.5,-0.5C 174.034,28.7227 100.367,57.7227 26.5,86.5C 25.3334,152.831 25.1667,219.164 26,285.5C 30.4331,326.837 46.0998,363.171 73,394.5C 104.352,428.769 141.185,455.602 183.5,475C 204.031,484.671 225.031,492.838 246.5,499.5C 164.167,499.5 81.8333,499.5 -0.5,499.5C -0.5,332.833 -0.5,166.167 -0.5,-0.5 Z"/></g>
<g><path style="opacity:1" fill="#fefefe" d="M 250.5,-0.5 C 333.5,-0.5 416.5,-0.5 499.5,-0.5C 499.5,166.167 499.5,332.833 499.5,499.5C 416.833,499.5 334.167,499.5 251.5,499.5C 310.322,482.096 362.656,453.263 408.5,413C 442.33,381.18 463.497,342.347 472,296.5C 473.137,260.023 473.637,223.523 473.5,187C 473.167,153.5 472.833,120 472.5,86.5C 398.401,57.4725 324.401,28.4725 250.5,-0.5 Z"/></g>
<g><path style="opacity:1" fill="#60a4f9" d="M 247.5,-0.5 C 248.167,-0.5 248.833,-0.5 249.5,-0.5C 249.5,21.5 249.5,43.5 249.5,65.5C 194.743,86.3761 140.077,107.543 85.5,129C 84.3363,178.429 84.1696,227.929 85,277.5C 87.9573,303.738 97.2906,327.405 113,348.5C 138.36,378.848 169.193,402.014 205.5,418C 219.804,424.268 234.471,429.434 249.5,433.5C 249.5,455.5 249.5,477.5 249.5,499.5C 248.5,499.5 247.5,499.5 246.5,499.5C 225.031,492.838 204.031,484.671 183.5,475C 141.185,455.602 104.352,428.769 73,394.5C 46.0998,363.171 30.4331,326.837 26,285.5C 25.1667,219.164 25.3334,152.831 26.5,86.5C 100.367,57.7227 174.034,28.7227 247.5,-0.5 Z"/></g>
<g><path style="opacity:1" fill="#14213d" d="M 249.5,-0.5 C 249.833,-0.5 250.167,-0.5 250.5,-0.5C 324.401,28.4725 398.401,57.4725 472.5,86.5C 472.833,120 473.167,153.5 473.5,187C 473.637,223.523 473.137,260.023 472,296.5C 463.497,342.347 442.33,381.18 408.5,413C 362.656,453.263 310.322,482.096 251.5,499.5C 250.833,499.5 250.167,499.5 249.5,499.5C 249.5,477.5 249.5,455.5 249.5,433.5C 291.276,422.115 328.61,402.615 361.5,375C 391.034,349.445 408.534,317.278 414,278.5C 414.833,228.83 414.667,179.163 413.5,129.5C 358.888,107.964 304.222,86.6307 249.5,65.5C 249.5,43.5 249.5,21.5 249.5,-0.5 Z"/></g>
<g><path style="opacity:1" fill="#14213d" d="M 249.5,65.5 C 249.5,188.167 249.5,310.833 249.5,433.5C 234.471,429.434 219.804,424.268 205.5,418C 169.193,402.014 138.36,378.848 113,348.5C 97.2906,327.405 87.9573,303.738 85,277.5C 84.1696,227.929 84.3363,178.429 85.5,129C 140.077,107.543 194.743,86.3761 249.5,65.5 Z"/></g>
<g><path style="opacity:1" fill="#5fa4f9" d="M 249.5,65.5 C 304.222,86.6307 358.888,107.964 413.5,129.5C 414.667,179.163 414.833,228.83 414,278.5C 408.534,317.278 391.034,349.445 361.5,375C 328.61,402.615 291.276,422.115 249.5,433.5C 249.5,310.833 249.5,188.167 249.5,65.5 Z"/></g>
<g><path style="opacity:1" fill="#5ea3f7" d="M 180.5,211.5 C 201.503,211.333 222.503,211.5 243.5,212C 244.333,212.833 245.167,213.667 246,214.5C 246.667,220.167 246.667,225.833 246,231.5C 245.5,232 245,232.5 244.5,233C 224.167,233.333 203.833,233.667 183.5,234C 178.333,235.167 175.167,238.333 174,243.5C 173.333,263.167 173.333,282.833 174,302.5C 175.01,306.843 177.51,310.01 181.5,312C 202.167,312.333 222.833,312.667 243.5,313C 244.667,313.5 245.5,314.333 246,315.5C 246.667,320.833 246.667,326.167 246,331.5C 245.626,332.416 245.126,333.25 244.5,334C 222.167,334.667 199.833,334.667 177.5,334C 165.644,331.813 157.811,324.98 154,313.5C 152.97,309.227 152.303,304.894 152,300.5C 151.333,280.833 151.333,261.167 152,241.5C 154.608,224.73 164.108,214.73 180.5,211.5 Z"/></g>
<g><path style="opacity:1" fill="#14223e" d="M 252.5,213.5 C 274.503,213.333 296.503,213.5 318.5,214C 335.316,218.164 344.15,228.997 345,246.5C 345.667,264.833 345.667,283.167 345,301.5C 344.614,321.831 334.447,333.331 314.5,336C 293.833,336.667 273.167,336.667 252.5,336C 252,335.5 251.5,335 251,334.5C 250.207,328.115 250.374,321.782 251.5,315.5C 272.159,314.667 292.825,314.167 313.5,314C 319.777,311.296 322.944,306.463 323,299.5C 323.667,281.833 323.667,264.167 323,246.5C 322.228,240.765 319.062,237.265 313.5,236C 293.167,235.667 272.833,235.333 252.5,235C 252,234.5 251.5,234 251,233.5C 250.333,227.5 250.333,221.5 251,215.5C 251.717,214.956 252.217,214.289 252.5,213.5 Z"/></g>
</svg>
